<svg width="18" height="16" viewBox="0 0 18 16" fill="none" xmlns="http://www.w3.org/2000/svg">
<path d="M13.1667 0.708332C11.6709 0.708332 10.4584 1.92089 10.4584 3.41667C10.4584 4.91244 11.6709 6.125 13.1667 6.125C14.6625 6.125 15.875 4.91244 15.875 3.41667C15.875 1.92089 14.6625 0.708332 13.1667 0.708332Z" fill="#363640"/>
<path d="M5.66669 1.54167C3.9408 1.54167 2.54169 2.94078 2.54169 4.66667C2.54169 6.39255 3.9408 7.79166 5.66669 7.79166C7.39258 7.79166 8.79169 6.39255 8.79169 4.66667C8.79169 2.94078 7.39258 1.54167 5.66669 1.54167Z" fill="#363640"/>
<path d="M13.1667 7.375C12.5374 7.375 11.9143 7.49894 11.333 7.73974C10.7516 7.98055 10.2234 8.3335 9.77847 8.77844C9.70526 8.85165 9.63454 8.92712 9.5664 9.0047C9.9098 9.24122 10.2318 9.50905 10.528 9.8053C11.1664 10.4437 11.6729 11.2016 12.0184 12.0357C12.1207 12.2829 12.2084 12.5353 12.2811 12.7917H17.3334C17.6785 12.7917 17.9584 12.5118 17.9584 12.1667C17.9584 11.5374 17.8344 10.9143 17.5936 10.333C17.3528 9.75162 16.9999 9.22339 16.5549 8.77844C16.11 8.3335 15.5817 7.98055 15.0004 7.73974C14.419 7.49894 13.7959 7.375 13.1667 7.375Z" fill="#363640"/>
<path d="M3.51409 9.46984C4.19655 9.18716 4.928 9.04166 5.66669 9.04166C6.40537 9.04166 7.13682 9.18716 7.81928 9.46984C8.50174 9.75253 9.12183 10.1669 9.64416 10.6892C10.1665 11.2115 10.5808 11.8316 10.8635 12.5141C11.1462 13.1965 11.2917 13.928 11.2917 14.6667C11.2917 15.0118 11.0119 15.2917 10.6667 15.2917H0.666687C0.321509 15.2917 0.041687 15.0118 0.041687 14.6667C0.041687 13.928 0.187183 13.1965 0.469864 12.5141C0.752546 11.8316 1.16688 11.2115 1.68921 10.6892C2.21154 10.1669 2.83164 9.75253 3.51409 9.46984Z" fill="#363640"/>
</svg>
