<svg width="18" height="18" viewBox="0 0 18 18" fill="none" xmlns="http://www.w3.org/2000/svg">
<path d="M1.00483 16.9952C0.897615 16.888 0.812569 16.7607 0.754545 16.6206C0.696521 16.4805 0.666656 16.3304 0.666656 16.1788C0.666656 16.0271 0.696521 15.877 0.754545 15.7369C0.812569 15.5968 0.897615 15.4695 1.00483 15.3623L3.45408 12.913L1.82125 11.2802C1.60472 11.0636 1.48308 10.77 1.48308 10.4637C1.48308 10.1575 1.60472 9.86386 1.82125 9.64733C2.03777 9.43081 2.33145 9.30916 2.63766 9.30916C2.94388 9.30916 3.23755 9.43081 3.45408 9.64733L8.35266 14.5458C8.5692 14.7624 8.69086 15.056 8.69086 15.3623C8.69087 15.6685 8.56923 15.9622 8.3527 16.1787C8.13618 16.3952 7.8425 16.5169 7.53627 16.5169C7.23005 16.5169 6.93637 16.3953 6.71983 16.1788L5.087 14.5458L2.63766 16.9952C2.53045 17.1024 2.40317 17.1874 2.26309 17.2455C2.12301 17.3035 1.97287 17.3333 1.82125 17.3333C1.66962 17.3333 1.51948 17.3035 1.3794 17.2455C1.23932 17.1874 1.11204 17.1024 1.00483 16.9952ZM16.5 0.666666H14.4128C14.1918 0.666669 13.9799 0.754468 13.8236 0.910749L5.449 9.28533L8.71458 12.5512L17.0896 4.17617C17.2457 4.01989 17.3333 3.80804 17.3333 3.58717V1.5C17.3333 1.27899 17.2455 1.06702 17.0893 0.910744C16.933 0.754463 16.721 0.666666 16.5 0.666666ZM14.5459 12.913L16.1787 11.2802C16.3953 11.0636 16.5169 10.77 16.5169 10.4637C16.5169 10.1575 16.3953 9.86386 16.1787 9.64733C15.9622 9.43081 15.6685 9.30916 15.3623 9.30916C15.0561 9.30916 14.7624 9.43081 14.5459 9.64733L9.64733 14.5458C9.54011 14.653 9.45506 14.7803 9.39703 14.9204C9.339 15.0605 9.30913 15.2106 9.30913 15.3623C9.30912 15.6685 9.43076 15.9622 9.64729 16.1787C9.86381 16.3952 10.1575 16.5169 10.4637 16.5169C10.7699 16.5169 11.0636 16.3953 11.2802 16.1788L12.913 14.5458L15.3623 16.9952C15.5789 17.2117 15.8725 17.3333 16.1787 17.3333C16.485 17.3333 16.7786 17.2117 16.9952 16.9952C17.2117 16.7786 17.3333 16.485 17.3333 16.1788C17.3333 15.8725 17.2117 15.5789 16.9952 15.3623L14.5459 12.913ZM3.58716 0.666666H1.5C1.27898 0.666666 1.06702 0.754463 0.91074 0.910744C0.75446 1.06702 0.666662 1.27899 0.666662 1.5V3.58717C0.666653 3.69661 0.688204 3.80499 0.730084 3.90611C0.771964 4.00723 0.833353 4.09911 0.910746 4.1765L4.55625 7.82192L7.82183 4.55608L4.17641 0.910749C4.02013 0.754468 3.80818 0.666669 3.58716 0.666666Z" fill="#363640"/>
</svg>
