<svg width="18" height="18" viewBox="0 0 18 18" fill="none" xmlns="http://www.w3.org/2000/svg">
<path d="M4.83332 0.716666C5.06041 0.684027 5.29235 0.666666 5.52777 0.666666H12.4722C12.7076 0.666666 12.9396 0.684027 13.1667 0.716666V6.91667H11.0833C11.0833 5.76805 10.1486 4.83333 8.99999 4.83333C7.85138 4.83333 6.91666 5.76805 6.91666 6.91667H4.83332V0.716666ZM14.5555 6.91667H17.3333V5.52778C17.3333 3.59236 16.1965 1.91805 14.5555 1.13611V6.91667ZM11.0833 8.30555V9C11.0833 10.1486 10.1486 11.0833 8.99999 11.0833C7.85138 11.0833 6.91666 10.1486 6.91666 9V8.30555H0.666656V13.8611C0.666656 15.5375 1.8618 16.941 3.44443 17.2632V10.3889C3.44443 10.0056 3.75485 9.69444 4.13888 9.69444C4.52291 9.69444 4.83332 10.0056 4.83332 10.3889V17.3333H13.1667V10.3889C13.1667 10.0056 13.4771 9.69444 13.8611 9.69444C14.2451 9.69444 14.5555 10.0056 14.5555 10.3889V17.2632C16.1382 16.9403 17.3333 15.5375 17.3333 13.8611V8.30555H11.0833ZM3.44443 6.91667V1.13611C1.80346 1.91805 0.666656 3.59236 0.666656 5.52778V6.91667H3.44443ZM8.99999 9.69444C9.38332 9.69444 9.69443 9.38264 9.69443 9V6.91667C9.69443 6.53403 9.38332 6.22222 8.99999 6.22222C8.61666 6.22222 8.30554 6.53403 8.30554 6.91667V9C8.30554 9.38264 8.61666 9.69444 8.99999 9.69444Z" fill="#363640"/>
</svg>
