<svg width="20" height="20" viewBox="0 0 20 20" fill="none" xmlns="http://www.w3.org/2000/svg">
<path fill-rule="evenodd" clip-rule="evenodd" d="M3.45884 13.4716C2.49393 12.506 2.41209 11.0259 2.82353 9.58583C3.24172 8.12217 4.20216 6.54275 5.58076 5.16415C6.95936 3.78555 8.53879 2.8251 10.0025 2.40691C11.4428 1.99538 12.9233 2.07736 13.8889 3.04293L13.9074 3.06156L13.9162 3.07024L16.5404 5.69443C17.506 6.66001 17.588 8.14051 17.1764 9.58088C16.7582 11.0445 15.7978 12.624 14.4192 14.0026C13.0406 15.3812 11.4612 16.3416 9.9975 16.7598C8.55712 17.1713 7.07662 17.0894 6.11105 16.1238L3.45884 13.4716ZM6.46465 6.04803C7.72195 4.79072 9.12246 3.95836 10.3459 3.60882C11.5925 3.25262 12.5062 3.42799 13.005 3.92681C13.5038 4.42563 13.6792 5.3393 13.323 6.58598C12.9735 7.80937 12.1411 9.20988 10.8838 10.4672C9.6265 11.7245 8.22599 12.5569 7.0026 12.9064C6.77381 12.9718 6.55624 13.0192 6.35038 13.0501C5.43475 13.1872 4.75107 12.9956 4.34385 12.5883L4.33129 12.5761C3.84178 12.0747 3.67214 11.1658 4.02543 9.92924C4.37497 8.70585 5.20734 7.30534 6.46465 6.04803ZM10.5453 12.4267L12.2977 14.1791L12.2525 14.2243C11.9138 14.4738 11.5726 14.6939 11.2344 14.8836L9.49691 13.1461C9.84972 12.9324 10.2005 12.692 10.5453 12.4267ZM15.3002 10.818L13.5628 9.08055C13.3491 9.43334 13.1088 9.78414 12.8434 10.1288L14.5958 11.8813L14.6405 11.8366C14.8902 11.4977 15.1104 11.1563 15.3002 10.818Z" fill="#A3A3B7"/>
<path fill-rule="evenodd" clip-rule="evenodd" d="M10.7069 6.22471C10.951 6.46878 10.951 6.86451 10.7069 7.10859L10.5949 7.2206C10.6006 7.2379 10.606 7.25556 10.611 7.27361C10.6972 7.58641 10.6347 7.89733 10.493 8.19212C10.3434 8.5032 9.96997 8.63412 9.65889 8.48454C9.34781 8.33496 9.21688 7.96151 9.36647 7.65043C9.37598 7.63064 9.38288 7.61431 9.38787 7.60119C9.38479 7.59792 9.38149 7.59445 9.37794 7.59078C9.37153 7.58488 9.36522 7.57882 9.359 7.57261C9.3538 7.5674 9.3487 7.56213 9.34372 7.55679C9.32111 7.53574 9.30538 7.52476 9.29613 7.51928C9.2662 7.52912 9.18927 7.56562 9.0619 7.69299C8.9666 7.78828 8.90811 7.88497 8.88132 7.95489C8.82552 8.10051 9.07339 8.50873 9.13055 8.65557C9.25355 8.97367 9.19468 9.29885 9.10256 9.5392C9.00556 9.79231 8.84238 10.0337 8.63872 10.2374C8.29347 10.5826 7.90113 10.7955 7.46933 10.7791C7.33634 10.7741 7.21551 10.7478 7.1069 10.7086L6.99477 10.8207C6.7507 11.0648 6.35497 11.0648 6.11089 10.8207C5.86681 10.5766 5.86681 10.1809 6.11089 9.93684L6.22214 9.82558C6.21619 9.80761 6.21063 9.78924 6.20551 9.77046C6.12015 9.45745 6.18328 9.14661 6.32525 8.852C6.47509 8.54105 6.84865 8.41044 7.15961 8.56028C7.47056 8.71013 7.60117 9.08368 7.45132 9.39464C7.44151 9.41501 7.43443 9.43178 7.42934 9.44519C7.43938 9.45402 7.4492 9.46323 7.45879 9.47282C7.46765 9.48168 7.47618 9.49074 7.4844 9.49998C7.501 9.51447 7.51299 9.5227 7.5206 9.52721C7.55053 9.51737 7.62746 9.48087 7.75483 9.3535C7.85026 9.25808 7.90863 9.16157 7.93534 9.09187C7.99121 8.9461 7.74386 8.53911 7.68669 8.39222C7.56277 8.07364 7.62214 7.74756 7.71407 7.50764C7.81105 7.25455 7.97422 7.0129 8.17801 6.8091C8.52326 6.46385 8.91561 6.25101 9.34741 6.26737C9.48039 6.27241 9.60123 6.29873 9.70983 6.33789L9.82302 6.22471C10.0671 5.98063 10.4628 5.98063 10.7069 6.22471ZM7.52929 9.53173L7.53063 9.5322L7.52929 9.53173ZM9.28743 7.51475L9.2861 7.51428L9.28743 7.51475Z" fill="#A3A3B7"/>
</svg>
