<svg width="18" height="17" viewBox="0 0 18 17" fill="none" xmlns="http://www.w3.org/2000/svg">
<path d="M6.73004 1.32606C8.09298 0.37201 9.90702 0.37201 11.27 1.32606L15.4366 4.24273C16.4948 4.98345 17.125 6.19386 17.125 7.48552V12.1667C17.125 14.3528 15.3528 16.125 13.1667 16.125H11.5C11.1548 16.125 10.875 15.8452 10.875 15.5V12.1667C10.875 11.5914 10.4086 11.125 9.83333 11.125H8.16667C7.59137 11.125 7.125 11.5914 7.125 12.1667V15.5C7.125 15.8452 6.84518 16.125 6.5 16.125H4.83333C2.64721 16.125 0.875 14.3528 0.875 12.1667V7.48552C0.875 6.19386 1.50521 4.98345 2.56338 4.24273L6.73004 1.32606Z" fill="#363640"/>
</svg>
