<svg width="29" height="28" viewBox="0 0 29 28" fill="none" xmlns="http://www.w3.org/2000/svg">
<path fill-rule="evenodd" clip-rule="evenodd" d="M0 12.5317C4.28382 12.5317 6.47981 9.18599 6.47981 5.32068H12.4C16.5498 5.32068 19.6299 7.17105 20.9254 10.3357C21.9998 12.1978 23.6198 12.5293 28.094 12.5293C27.4075 4.88807 21.3392 0 12.7198 0H0V12.5317Z" fill="#806BFF"/>
<path fill-rule="evenodd" clip-rule="evenodd" d="M16.0537 20.9536C22.7474 15.8962 13.3616 11.7017 14.2832 6.69375C12.8467 8.01746 11.61 9.12485 11.1821 10.6931C10.5896 12.8538 11.664 13.8295 11.1444 14.3985C10.8694 14.6995 9.87951 13.6038 9.74549 13.1736C7.57067 15.828 7.86692 18.4543 11.2949 21.3062C10.7306 20.5633 9.7549 19.0162 10.1828 18.2262C10.5519 17.5397 11.744 18.4002 12.5387 17.582C12.7573 17.3563 12.889 17.0342 12.9384 16.6157C13.0841 15.3366 12.2401 14.502 13.1947 12.4964C14.1727 14.1963 18.1274 19.0562 16.0537 20.9583V20.9536Z" fill="white"/>
<path fill-rule="evenodd" clip-rule="evenodd" d="M5.14984e-05 15.4683C4.28387 15.4683 6.47986 18.814 6.47986 22.6793H12.4001C16.5499 22.6793 19.6299 20.829 20.9254 17.6643C21.9999 15.8022 23.6198 15.4707 28.0941 15.4707C27.4076 23.1143 21.3392 28.0024 12.7198 28.0024H5.14984e-05V15.4707V15.4683Z" fill="#806BFF"/>
</svg>
